<svg width="17" height="18" viewBox="0 0 17 18" fill="none" xmlns="http://www.w3.org/2000/svg">
<g clip-path="url(#clip0_643_7)">
<path d="M15.7167 5.25V0.75H11.6167" stroke="#669ADE" stroke-width="2" stroke-linecap="round" stroke-linejoin="round"/>
<path d="M10.9333 6L15.7167 0.75" stroke="#669ADE" stroke-width="2" stroke-linecap="round" stroke-linejoin="round"/>
<path d="M15.0333 12.69V14.94C15.0341 15.1489 14.9951 15.3556 14.9189 15.547C14.8426 15.7384 14.7308 15.9102 14.5906 16.0514C14.4503 16.1926 14.2848 16.3001 14.1045 16.367C13.9242 16.4339 13.7332 16.4588 13.5437 16.44C11.4409 16.1892 9.42111 15.4006 7.64649 14.1375C5.99544 12.986 4.59564 11.4496 3.5465 9.6375C2.39165 7.6809 1.67296 5.45325 1.44866 3.135C1.43159 2.9276 1.45404 2.71857 1.5146 2.52122C1.57516 2.32387 1.6725 2.14252 1.80042 1.98872C1.92834 1.83492 2.08403 1.71203 2.25759 1.62789C2.43114 1.54375 2.61876 1.5002 2.8085 1.5H4.85849C5.19012 1.49642 5.51162 1.62531 5.76307 1.86265C6.01451 2.09999 6.17875 2.42959 6.22516 2.79C6.31169 3.51005 6.47215 4.21705 6.7035 4.8975C6.79543 5.16594 6.81533 5.45769 6.76083 5.73816C6.70633 6.01863 6.57972 6.27608 6.39599 6.48L5.52816 7.4325C6.50092 9.31016 7.91741 10.8648 9.62816 11.9325L10.496 10.98C10.6818 10.7784 10.9163 10.6394 11.1719 10.5796C11.4274 10.5198 11.6932 10.5416 11.9378 10.6425C12.5578 10.8964 13.2019 11.0725 13.858 11.1675C14.1899 11.2189 14.4931 11.4024 14.7098 11.6831C14.9265 11.9638 15.0416 12.3222 15.0333 12.69Z" stroke="#669ADE" stroke-width="2" stroke-linecap="round" stroke-linejoin="round"/>
</g>
<defs>
<clipPath id="clip0_643_7">
<rect width="16.4" height="18" fill="white"/>
</clipPath>
</defs>
</svg>
