<svg width="354" height="170" viewBox="0 0 354 170" fill="none" xmlns="http://www.w3.org/2000/svg">
<path d="M38 28C38 21.3726 43.3726 16 50 16H342C348.627 16 354 21.3726 354 28V141C354 147.627 348.627 153 342 153H50C43.3726 153 38 147.627 38 141V28Z" fill="#3F3F3F"/>
<path d="M27 23C27 16.3726 32.3726 11 39 11H331C337.627 11 343 16.3726 343 23V148C343 154.627 337.627 160 331 160H39C32.3726 160 27 154.627 27 148V23Z" fill="#5B5B5B"/>
<path d="M16 17C16 10.3726 21.3726 5 28 5H320C326.627 5 332 10.3726 332 17V154C332 160.627 326.627 166 320 166H28C21.3726 166 16 160.627 16 154V17Z" fill="#818181"/>
<path d="M0 12C0 5.37258 5.37258 0 12 0H304C310.627 0 316 5.37258 316 12V158C316 164.627 310.627 170 304 170H12C5.37257 170 0 164.627 0 158V12Z" fill="#EBEBEB"/>
<path d="M204 12C204 5.37258 209.373 0 216 0H304C310.627 0 316 5.37258 316 12V158C316 164.627 310.627 170 304 170H216C209.373 170 204 164.627 204 158V12Z" fill="#D9D9D9"/>
</svg>
